<?xml version="1.0" standalone="no"?>
<!DOCTYPE svg PUBLIC "-//W3C//DTD SVG 20010904//EN"
 "http://www.w3.org/TR/2001/REC-SVG-20010904/DTD/svg10.dtd">
<svg version="1.0" xmlns="http://www.w3.org/2000/svg"
 width="174.000000pt" height="163.000000pt" viewBox="0 0 174.000000 163.000000"
 preserveAspectRatio="xMidYMid meet">

<g transform="translate(0.000000,163.000000) scale(0.100000,-0.100000)"
fill="#000000" stroke="none">
<path d="M738 1353 c-128 -102 -303 -243 -388 -311 -85 -69 -156 -126 -158
-128 -3 -2 210 -267 317 -394 21 -25 113 -137 206 -250 187 -229 191 -233 182
-207 -4 9 -17 86 -29 170 -20 132 -23 193 -23 462 0 250 3 330 18 415 22 133
62 293 92 370 13 33 22 60 20 60 -2 0 -108 -84 -237 -187z"/>
<path d="M1166 1157 c-264 -94 -234 -65 -263 -257 -22 -150 -24 -499 -3 -620
l14 -85 8 65 c11 86 42 212 74 302 24 65 114 252 147 302 106 166 136 207 230
319 27 31 43 57 35 56 -7 0 -116 -37 -242 -82z"/>
<path d="M1138 737 c-85 -128 -160 -359 -176 -536 -4 -50 -7 -91 -5 -91 1 0
14 21 29 48 131 228 327 451 499 568 l50 34 -191 0 c-188 0 -192 0 -206 -23z"/>
</g>
</svg>
